<svg width="15" height="15" viewBox="0 0 15 15" fill="none" xmlns="http://www.w3.org/2000/svg">
<g clip-path="url(#clip0_367_16193)">
<path d="M10.7313 15C10.649 15.0005 10.5675 14.9847 10.4913 14.9536C10.4152 14.9225 10.3459 14.8767 10.2875 14.8187L5.18127 9.71248C4.89025 9.4222 4.65936 9.07735 4.50182 8.69769C4.34428 8.31804 4.26318 7.91103 4.26318 7.49998C4.26318 7.08894 4.34428 6.68193 4.50182 6.30228C4.65936 5.92262 4.89025 5.57777 5.18127 5.28749L10.2875 0.181244C10.3458 0.12297 10.415 0.0767441 10.4911 0.0452064C10.5673 0.0136688 10.6489 -0.00256348 10.7313 -0.00256348C10.8137 -0.00256348 10.8953 0.0136687 10.9714 0.0452064C11.0476 0.0767441 11.1167 0.12297 11.175 0.181244C11.2333 0.239518 11.2795 0.308699 11.3111 0.384838C11.3426 0.460976 11.3588 0.542581 11.3588 0.624993C11.3588 0.707405 11.3426 0.78901 11.3111 0.865148C11.2795 0.941287 11.2333 1.01047 11.175 1.06874L6.06877 6.17499C5.71764 6.52655 5.52042 7.00311 5.52042 7.49998C5.52042 7.99686 5.71764 8.47342 6.06877 8.82498L11.175 13.9312C11.2336 13.9893 11.2801 14.0585 11.3118 14.1346C11.3436 14.2108 11.3599 14.2925 11.3599 14.375C11.3599 14.4575 11.3436 14.5392 11.3118 14.6153C11.2801 14.6915 11.2336 14.7606 11.175 14.8187C11.1166 14.8767 11.0474 14.9225 10.9712 14.9536C10.8951 14.9847 10.8135 15.0005 10.7313 15Z" fill="#374957"/>
</g>
<defs>
<clipPath id="clip0_367_16193">
<rect width="15" height="15" fill="white"/>
</clipPath>
</defs>
</svg>
