<svg width="16" height="19" viewBox="0 0 16 19" fill="none" xmlns="http://www.w3.org/2000/svg">
<path fill-rule="evenodd" clip-rule="evenodd" d="M10.5463 1.44589C9.63118 1.05071 8.64617 0.842742 7.64937 0.834247C6.64587 0.818708 5.6497 1.00753 4.7215 1.38922C3.79329 1.77091 2.95246 2.33749 2.25018 3.05448C0.824292 4.49847 0.0172245 6.44128 0.000266042 8.47057C-0.0166914 10.4999 0.757794 12.4559 2.15935 13.9235L6.76128 18.6869C6.8539 18.7841 6.96498 18.8618 7.08802 18.9155C7.21105 18.9693 7.34357 18.9979 7.47781 18.9998C7.61186 19.0028 7.74502 18.9774 7.86853 18.9252C7.99204 18.873 8.10308 18.7952 8.19434 18.697L12.877 14.0042C14.3043 12.5616 15.1131 10.6195 15.132 8.5902C15.1508 6.5609 14.3781 4.60414 12.9779 3.13521C12.2883 2.41546 11.4615 1.84107 10.5463 1.44589ZM7.48762 11.1439C8.83666 11.1439 9.93027 10.0503 9.93027 8.70124C9.93027 7.3522 8.83666 6.25859 7.48762 6.25859C6.13858 6.25859 5.04497 7.3522 5.04497 8.70124C5.04497 10.0503 6.13858 11.1439 7.48762 11.1439Z" fill="#4C4F4D"/>
</svg>
