<svg width="24" height="24" viewBox="0 0 24 24" fill="none" xmlns="http://www.w3.org/2000/svg">
<path d="M1 8H23C23.2652 8 23.5196 7.89464 23.7071 7.7071C23.8946 7.51957 24 7.26521 24 7C24 6.73478 23.8946 6.48043 23.7071 6.29289C23.5196 6.10536 23.2652 6 23 6H1C0.734784 6 0.48043 6.10536 0.292893 6.29289C0.105357 6.48043 0 6.73478 0 7C0 7.26521 0.105357 7.51957 0.292893 7.7071C0.48043 7.89464 0.734784 8 1 8Z" fill="#374957"/>
<path d="M1 13H15C15.2652 13 15.5196 12.8946 15.7071 12.7071C15.8946 12.5196 16 12.2652 16 12C16 11.7348 15.8946 11.4804 15.7071 11.2929C15.5196 11.1054 15.2652 11 15 11H1C0.734784 11 0.48043 11.1054 0.292893 11.2929C0.105357 11.4804 0 11.7348 0 12C0 12.2652 0.105357 12.5196 0.292893 12.7071C0.48043 12.8946 0.734784 13 1 13Z" fill="#374957"/>
<path d="M11 16H1C0.734784 16 0.480429 16.1054 0.292892 16.2929C0.105356 16.4804 0 16.7348 0 17C0 17.2652 0.105356 17.5196 0.292892 17.7071C0.480429 17.8947 0.734784 18 1 18H11C11.2652 18 11.5196 17.8947 11.7071 17.7071C11.8946 17.5196 12 17.2652 12 17C12 16.7348 11.8946 16.4804 11.7071 16.2929C11.5196 16.1054 11.2652 16 11 16Z" fill="#374957"/>
</svg>
